HIERARCHY
ROOT Root
{
	OFFSET 0.00000 0.00000 0.00000
	CHANNELS 6 Xposition Yposition Zposition Zrotation Xrotation Yrotation
	JOINT Hips
	{
		OFFSET 0 0 0	
		CHANNELS 3 Zrotation Xrotation Yrotation
		JOINT Spine
		{
			OFFSET 0 4 0	
			CHANNELS 3 Zrotation Xrotation Yrotation
			JOINT Spine1
			{
				OFFSET 0 19.4 0	
				CHANNELS 3 Zrotation Xrotation Yrotation
				JOINT Spine2
				{
					OFFSET 0 16.6 0	
					CHANNELS 3 Zrotation Xrotation Yrotation
					JOINT LeftCollar
					{
						OFFSET 0 10 0	
						CHANNELS 3 Zrotation Xrotation Yrotation
						JOINT LeftArm
						{
							OFFSET 15.6 -2 3	
							CHANNELS 3 Zrotation Xrotation Yrotation
							JOINT LeftForeArm
							{
								OFFSET 3.5 -27 -1	
								CHANNELS 3 Zrotation Xrotation Yrotation
								JOINT LeftHand
								{
									OFFSET 1 -27 1	
									CHANNELS 3 Zrotation Xrotation Yrotation
									End Site
									{
										OFFSET 0 -15 0
									}
								}
							}
						}
					}
					JOINT RightCollar
					{
						OFFSET 0 10 0	
						CHANNELS 3 Zrotation Xrotation Yrotation
						JOINT RightArm
						{
							OFFSET -15.6 -2 3	
							CHANNELS 3 Zrotation Xrotation Yrotation
							JOINT RightForeArm
							{
								OFFSET -3.5 -27 -1	
								CHANNELS 3 Zrotation Xrotation Yrotation
								JOINT RightHand
								{
									OFFSET -1 -27 1	
									CHANNELS 3 Zrotation Xrotation Yrotation
									End Site
									{
										OFFSET 0 -15 0
									}
								}
							}
						}
					}
					JOINT Neck
					{
						OFFSET 0 10 0	
						CHANNELS 3 Zrotation Xrotation Yrotation
						JOINT Head
						{
							OFFSET 0 12.7 3	
							CHANNELS 3 Zrotation Xrotation Yrotation
							End Site
							{
								OFFSET 0 12.7 3
							}
						}
					}
				}
			}
		}
	}
	JOINT LeftHip
	{
		OFFSET 0 0 0	
		CHANNELS 3 Zrotation Xrotation Yrotation
		JOINT LeftUpLeg
		{
			OFFSET 8.8 -6 0	
			CHANNELS 3 Zrotation Xrotation Yrotation
			JOINT LeftLeg
			{
				OFFSET 0 -39 2	
				CHANNELS 3 Zrotation Xrotation Yrotation
				JOINT LeftFoot
				{
					OFFSET 0 -43 -2	
					CHANNELS 3 Zrotation Xrotation Yrotation
					JOINT LeftFootFront
					{
						OFFSET 0 -7 8.5	
						CHANNELS 3 Zrotation Xrotation Yrotation
						End Site
						{
							OFFSET 0 -0.5 9
						}
					}
				}
				JOINT LeftHeel
				{
					OFFSET 0 -43 -2	
					CHANNELS 3 Zrotation Xrotation Yrotation
					End Site
					{
						OFFSET 0 -7.5 -5
					}
				}
			}
		}
	}
	JOINT RightHip
	{
		OFFSET 0 0 0	
		CHANNELS 3 Zrotation Xrotation Yrotation
		JOINT RightUpLeg
		{
			OFFSET -8.8 -6 0	
			CHANNELS 3 Zrotation Xrotation Yrotation
			JOINT RightLeg
			{
				OFFSET 0 -39 2	
				CHANNELS 3 Zrotation Xrotation Yrotation
				JOINT RightFoot
				{
					OFFSET 0 -43 -2	
					CHANNELS 3 Zrotation Xrotation Yrotation
					JOINT RightFootFront
					{
						OFFSET 0 -7 8.5	
						CHANNELS 3 Zrotation Xrotation Yrotation
						End Site
						{
							OFFSET 0 -0.5 9
						}
					}
				}
				JOINT RightHeel
				{
					OFFSET 0 -43 -2	
					CHANNELS 3 Zrotation Xrotation Yrotation
					End Site
					{
						OFFSET 0 -7.5 -5
					}
				}
			}
		}
	}
}
MOTION
Frames: 21
Frame Time: 0.025
156.63 32.337 -8.3002 -0 0 -0 -67.737 6.0465 -70.111 -0.32684 -4.0551 28.988 -0.32684 -4.0551 28.988 -0.41363 -3.4031 24.344 -0 0 -0 4.592 9.9296 -63.851 15.204 -10.019 25.735 -1.6864 2.9053 15.801 -0 0 -0 1.6631 8.7089 -58.938 -12.289 6.9161 -23.329 35.885 -6.8239 44.99 1.5602 -7.719 -17.469 1.5602 -7.719 -17.469 -67.737 6.0465 -70.111 16.95 -8.4302 43.28 -9.223 3.8617 13.64 3.0309 -3.2378 -7.9834 -0.43449 0.20325 -0.1563 -0 0 -0 -67.737 6.0465 -70.111 -5.1369 -14.118 16.847 1.0365 6.5062 13.146 9.3891 -11.387 26.388 -0.37623 0.26277 -0.14872 -0 0 -0 
157.99 30.217 -6.2458 -0 0 -0 -72.841 11.023 -62.351 1.7003 -4.4503 30.457 1.7003 -4.4503 30.457 1.2716 -3.8088 25.566 -0 0 -0 2.3098 12.062 -64.76 15.221 -11.18 25.188 -1.2617 3.4211 15.257 -0 0 -0 -1.2008 10.519 -59.705 -10.697 8.9019 -22.086 35.011 -11.32 43.514 -1.1106 -7.5232 -18.123 -1.1106 -7.5232 -18.123 -72.841 11.023 -62.351 20.042 -10.091 45.709 -7.253 3.8953 13.207 1.8359 -2.683 -8.2404 -0.21095 0.14298 0.36782 -0 0 -0 -72.841 11.023 -62.351 -0.82826 -15.678 19.962 0.64847 6.7068 13.391 9.4251 -10.982 24.967 -0.17866 0.12484 0.38538 -0 0 -0 
158.77 28.176 -5.1755 -0 0 -0 -78.319 13.349 -51.677 3.1298 -4.6992 30.592 3.1298 -4.6992 30.592 2.4653 -4.0703 25.671 -0 0 -0 0.48395 13.666 -64.01 14.649 -12.266 24.885 -0.68915 4.0097 14.05 -0 0 -0 -3.7454 12.05 -59.039 -8.753 10.521 -20.956 32.753 -15.3 40.931 -3.3899 -6.9618 -18.136 -3.3899 -6.9618 -18.136 -78.319 13.349 -51.677 21.507 -12.136 46.433 -5.8548 4.3643 10.129 1.0387 -2.3595 -7.4663 -0.022965 -0.078489 0.95529 -0 0 -0 -78.319 13.349 -51.677 1.3783 -16.664 20.247 0.67493 6.5093 13.749 9.1272 -10.13 22.626 -0.031329 -0.10672 1.0583 -0 0 -0 
159.01 26.329 -5.0513 -0 0 -0 -83.329 13.628 -40.13 3.9169 -4.8445 29.538 3.9169 -4.8445 29.538 3.1281 -4.2154 24.781 -0 0 -0 -1.5665 14.346 -60.534 13.544 -12.844 23.902 -0.041955 4.5096 12.188 -0 0 -0 -6.1197 12.84 -55.927 -6.5289 11.773 -19.917 29.357 -18.678 36.328 -5.0333 -6.264 -17.409 -5.0333 -6.264 -17.409 -83.329 13.628 -40.13 21.44 -14.421 46.15 -4.7954 5.2068 4.2972 0.64563 -2.3748 -5.5501 0.09253 -6.2507 1.378 -0 0 -0 -83.329 13.628 -40.13 1.9764 -16.999 18.622 0.69819 5.5495 14.881 8.6935 -8.9687 18.574 -0.033329 -0.093855 1.4821 -0 0 -0 
158.73 24.755 -5.8069 -0 0 -0 -87.658 12.246 -28.518 4.1405 -4.5813 26.954 4.1406 -4.5813 26.954 3.3383 -3.9874 22.612 -0 0 -0 -4.0363 13.653 -53.163 11.826 -12.877 21.572 0.74622 4.5004 9.7489 -0 0 -0 -8.1613 12.086 -49.97 -4.2284 12.63 -19.337 25.327 -21.407 30.464 -5.932 -6.0404 -15.765 -5.932 -6.0404 -15.765 -87.658 12.246 -28.518 19.817 -16.2 44.077 -3.6472 5.6186 -3.2814 0.36223 -2.2869 -2.9619 0.95018 -38.959 1.7334 -0 0 -0 -87.658 12.246 -28.518 1.8885 -16.112 15.038 0.29548 4.4409 16.751 8.016 -8.0064 13.248 -0.047735 0.087429 1.3553 -0 0 -0 
157.96 23.504 -7.3658 -0 0 -0 -91.09 9.8273 -17.244 4.2003 -4.0422 22.843 4.2003 -4.0422 22.843 3.4237 -3.5132 19.164 -0 0 -0 -6.2013 11.975 -43.08 9.6783 -12.733 18.512 86.024 7.5122 -5.9593 -0 0 -0 -9.7414 10.124 -41.711 -2.1463 13.077 -19.32 20.977 -23.345 24.362 -6.2503 -6.3294 -13.252 -6.2503 -6.3294 -13.252 -91.09 9.8273 -17.244 17.24 -17.245 39.586 -2.8216 5.5143 -10.496 0.18606 -1.9771 -0.67535 1.17 -54.4 1.4632 -0 0 -0 -91.09 9.8273 -17.244 1.9155 -14.636 10.013 -0.25773 3.9106 18.326 6.758 -7.2281 7.7167 0.0634 0.069534 0.76994 -0 0 -0 
156.75 22.591 -9.6594 -0 0 -0 -93.324 7.2688 -7.1647 4.1124 -3.6456 18.077 4.1124 -3.6456 18.077 3.3793 -3.1524 15.164 -0 0 -0 -7.1985 9.8845 -32.527 7.3326 -12.574 15.11 89.005 5.1254 -4.7402 -0 0 -0 -10.474 7.7183 -32.355 -0.43074 13.204 -19.559 16.384 -24.516 18.119 -6.1343 -6.6938 -10.403 -6.1343 -6.6938 -10.403 -93.324 7.2688 -7.1647 14.377 -17.969 33.459 -2.9731 5.7243 -15.525 0.56339 -1.8228 0.58015 0.60124 -63.194 0.49673 -0 0 -0 -93.324 7.2688 -7.1647 2.1861 -13.95 5.1001 -0.72906 4.1359 19.218 4.9057 -6.2915 2.3568 0.22216 -0.023647 0.13159 -0 0 -0 
155.08 22.004 -12.62 -0 0 -0 -94.28 5.1066 0.87199 3.4865 -3.3679 13.853 3.4865 -3.3679 13.853 2.8748 -2.8873 11.621 -0 0 -0 -6.5244 7.3045 -23.239 4.6949 -11.985 11.243 173.9 -3.9767 -3.8573 -0 0 -0 -9.8497 4.7789 -23.643 1.0165 13.123 -19.811 11.597 -24.96 11.781 -5.6883 -7.0304 -8.0466 -5.6884 -7.0304 -8.0466 -94.28 5.1066 0.87199 11.115 -18.46 27.205 -3.5156 5.9964 -17.979 1.213 -1.7941 0.72757 -0.01551 0.16166 -0.17299 -0 0 -0 -94.28 5.1066 0.87199 2.383 -14.79 1.5315 -1.1133 5.0924 19.931 2.7558 -5.0184 -2.6955 0.037177 0.20154 -0.22937 -0 0 -0 
152.94 21.702 -16.177 -0 0 -0 -94.298 3.2303 7.0821 2.3471 -3.0378 10.665 2.3471 -3.0378 10.665 1.9338 -2.582 8.949 -0 0 -0 -4.3562 4.2281 -15.786 1.5084 -10.426 6.9777 178.03 -3.9802 -2.5354 -0 0 -0 -7.9904 1.183 -16.673 2.3298 12.872 -20.115 7.0247 -24.526 5.8938 -4.974 -7.4991 -6.5619 -4.974 -7.4991 -6.5619 -94.298 3.2303 7.0821 7.2897 -18.389 21.548 -2.7958 4.7708 -18.998 0.87203 -1.2953 0.28604 -0.62823 0.48865 -0.035747 -0 0 -0 -94.298 3.2303 7.0821 2.0218 -16.343 -1.5716 -0.96104 5.748 21.421 0.81578 -3.2489 -7.3279 -0.60078 0.67059 0.033658 -0 0 -0 
150.3 21.607 -20.243 -0 0 -0 -93.722 1.2093 12.338 1.4023 -2.8086 8.265 1.4023 -2.8086 8.265 1.1508 -2.3732 6.9371 -0 0 -0 -2.3332 1.7 -9.9943 -1.3983 -8.1044 3.1922 179.53 -3.4404 -1.5818 -0 0 -0 -6.3358 -1.7659 -11.861 3.3779 12.587 -20.604 3.601 -23.568 1.3978 -4.2597 -8.006 -5.7865 -4.2597 -8.006 -5.7865 -93.722 1.2093 12.338 3.5752 -17.782 16.546 -0.72 2.0266 -20.806 -0.61015 -0.26121 0.54971 -0.8819 0.57191 0.64108 -0 0 -0 -93.722 1.2093 12.338 1.1022 -17.545 -5.9766 -0.41935 5.5602 23.934 -0.50962 -1.4168 -11.248 -0.74766 0.70093 0.78349 -0 0 -0 
147.16 21.613 -24.724 -0 0 -0 -92.537 -1.3845 17.1 1.2733 -2.8415 5.8296 1.2733 -2.8415 5.8296 1.05 -2.3958 4.8919 -0 0 -0 -2.2011 0.99526 -4.8548 -2.4471 -6.7376 0.69623 178.87 -3.539 -0.63146 -0 0 -0 -6.2236 -2.6426 -8.0642 3.919 12.463 -21.251 2.3492 -23.218 -1.1426 -3.8393 -8.3195 -5.0937 -3.8393 -8.3195 -5.0937 -92.537 -1.3845 17.1 1.1691 -17.124 11.96 1.0535 -0.35746 -24.585 -2.0211 0.39597 2.2944 -0.62372 0.40948 1.2255 -0 0 -0 -92.537 -1.3845 17.1 0.37061 -18.458 -12.21 -0.84136 5.9294 26.796 -0.94709 -1.0913 -14.243 -0.47521 0.48664 1.2887 -0 0 -0 
143.54 21.598 -29.498 -0 0 -0 -91.023 -4.3639 20.827 1.7266 -3.111 2.7785 1.7266 -3.111 2.7785 1.44 -2.619 2.3273 -0 0 -0 -3.0939 1.4072 0.89294 -2.2959 -6.7932 -1.2666 90.354 -3.8862 -6.7095 -0 0 -0 -6.7377 -2.8529 -3.7799 3.8407 12.448 -22.046 2.951 -23.562 -2.1417 -3.3167 -8.6732 -4.0652 -3.3167 -8.6732 -4.0653 -91.023 -4.3639 20.827 0.56966 -17.124 7.2595 1.6837 -2.4085 -29.377 -2.926 0.83818 4.8555 0.74132 -39.983 1.7618 -0 0 -0 -91.023 -4.3639 20.827 0.18927 -19.788 -19.793 -1.7142 6.7246 29.608 -1.265 -1.841 -16.717 -0.23846 0.58596 1.3616 -0 0 -0 
139.5 21.451 -34.416 -0 0 -0 -89.481 -7.3218 22.518 2.4756 -3.8466 -0.61876 2.4756 -3.8466 -0.61876 2.0818 -3.2294 -0.53082 -0 0 -0 -4.1446 2.5206 7.0607 -1.7586 -7.4002 -3.3758 88.153 -4.2829 -9.2125 -0 0 -0 -7.0016 -2.7516 1.0729 3.0656 12.55 -22.892 4.5587 -24.386 -2.606 -2.502 -9.0454 -2.9083 -2.502 -9.0454 -2.9083 -89.481 -7.3218 22.518 1.374 -18.234 2.2287 0.76527 -4.8244 -34.141 -3.3789 1.6585 7.5999 -0.049576 0.75412 1.3231 -0 0 -0 -89.481 -7.3218 22.518 0.19089 -22.589 -28.049 -2.6029 8.4144 32.422 -2.4088 -3.2565 -19.136 0.21822 0.75818 1.3581 -0 0 -0 
135.18 21.091 -39.303 -0 0 -0 -87.249 -10.465 21.789 2.898 -5.0472 -4.0826 2.898 -5.0472 -4.0826 2.4576 -4.2261 -3.4451 -0 0 -0 -4.4503 4.5428 13.272 -1.3007 -8.5452 -5.8678 0.093777 3.7489 0.93709 -0 0 -0 -6.2714 -2.1521 6.0378 1.5084 12.573 -23.682 6.2669 -24.976 -3.1319 -1.3677 -9.1741 -1.9471 -1.3677 -9.1741 -1.9471 -87.249 -10.465 21.789 2.4133 -20.258 -3.1191 -2.5123 -7.033 -38.623 -2.9073 3.0975 10.454 0.60142 0.83885 1.1917 -0 0 -0 -87.249 -10.465 21.789 -1.4661 -26.288 -37.2 -2.8267 10.894 35.348 -4.887 -4.5651 -21.358 0.90488 0.65375 1.1778 -0 0 -0 
130.73 20.487 -43.98 -0 0 -0 -84.19 -14.128 18.646 2.2162 -6.5046 -7.6453 2.2162 -6.5046 -7.6453 1.9191 -5.445 -6.4343 -0 0 -0 -2.5472 7.352 19.199 -1.5987 -9.8001 -8.5521 -1.3189 3.9435 2.038 -0 0 -0 -3.5766 -0.90438 10.612 -1.004 12.349 -24.068 8.2324 -24.301 -3.5479 0.31775 -8.69 -1.2288 0.31775 -8.69 -1.2288 -84.19 -14.128 18.646 2.4921 -22.99 -8.8306 -7.2717 -7.7947 -41.888 -1.2402 4.6793 12.813 0.84474 0.33935 0.67981 -0 0 -0 -84.19 -14.128 18.646 -5.8902 -29.323 -47.436 -2.0345 13.425 37.918 -7.8661 -5.2611 -22.438 0.91359 0.04484 0.57815 -0 0 -0 
126.37 19.672 -48.292 -0 0 -0 -80.668 -19.1 13.138 0.047137 -7.5292 -10.977 0.047134 -7.5292 -10.977 0.13716 -6.326 -9.2121 -0 0 -0 1.9948 10.197 23.196 -2.6877 -10.546 -10.557 83.654 10.543 7.6775 -0 0 -0 1.0701 0.63686 13.379 -4.4005 11.618 -23.532 11.273 -21.322 -3.5404 2.8582 -7.2977 -0.97138 2.8582 -7.2977 -0.97138 -80.668 -19.1 13.138 0.61256 -25.225 -14.78 -9.9943 -6.8073 -42.162 0.54666 5.0826 13.588 0.28302 -0.53859 -0.15177 -0 0 -0 -80.668 -19.1 13.138 -11.221 -29.99 -56.402 -1.1618 14.246 38.868 -9.3303 -5.4045 -21.346 0.048923 -0.63982 -0.25371 -0 0 -0 
122.31 18.738 -52.085 -0 0 -0 -78.016 -26.066 4.8011 -2.3081 -7.4155 -12.907 -2.3081 -7.4155 -12.907 -1.8248 -6.2669 -10.811 -0 0 -0 6.2383 10.722 23.45 -2.6479 -9.9751 -10.969 88.312 12.376 7.5222 -0 0 -0 5.4067 1.2979 13.289 -7.752 10.165 -22.199 14.77 -16.762 -3.4745 5.538 -5.5387 -1.511 5.538 -5.5387 -1.511 -78.016 -26.066 4.8011 -1.7102 -25.334 -19.417 -9.1358 -5.2754 -39.278 1.2603 3.9701 12.632 -0.35168 -0.9063 -0.74818 -0 0 -0 -78.016 -26.066 4.8011 -13.389 -28.581 -59.416 -1.2788 12.711 36.933 -8.6619 -5.5402 -18.467 -0.62685 -0.76942 -0.79256 -0 0 -0 
118.76 17.821 -55.235 -0 0 -0 -78.711 -34.56 -7.5757 -3.0571 -6.2339 -12.504 -3.0571 -6.2339 -12.504 -2.4755 -5.2837 -10.474 -0 0 -0 7.4833 8.5101 20.515 -0.79304 -8.38 -10.605 83.118 2.0958 -13.927 -0 0 -0 7.4745 0.57846 11.64 -9.9679 8.3385 -20.651 16.885 -12.744 -4.7894 7.1923 -4.3874 -2.9029 7.1923 -4.3874 -2.9029 -78.711 -34.56 -7.5757 -1.0556 -22.876 -20.768 -7.0575 -4.422 -35.17 1.1539 2.6854 11.095 -0.31463 -0.57088 -0.72191 -0 0 -0 -78.711 -34.56 -7.5757 -10.525 -26.206 -55.459 -2.2753 10.688 33.791 -7.4193 -5.9515 -16.198 -0.44991 -0.49335 -0.71473 -0 0 -0 
115.84 17.068 -57.714 -0 0 -0 -84.277 -42.232 -24.411 -2.2027 -4.6654 -10.451 -2.2026 -4.6654 -10.451 -1.7927 -3.9472 -8.7637 -0 0 -0 6.6797 5.9847 17.564 1.2112 -6.8735 -11.763 -93.074 -13.261 -7.2512 -0 0 -0 7.8232 -0.54534 10.062 -11.079 6.6832 -19.277 17.079 -10.068 -7.3494 7.5889 -3.9013 -4.5642 7.5889 -3.9013 -4.5642 -84.277 -42.232 -24.411 2.8974 -18.908 -19.42 -6.1814 -4.1246 -31.083 1.2339 2.0114 9.7942 0.20442 -0.22848 -0.68336 -0 0 -0 -84.277 -42.232 -24.411 -4.8841 -22.988 -49.057 -2.9123 9.7159 32.74 -7.1789 -6.285 -15.812 0.17425 -0.36778 -0.68532 -0 0 -0 
113.65 16.618 -59.546 -0 0 -0 -92.314 -47.126 -42.156 -1.2855 -3.3723 -8.5741 -1.2855 -3.3723 -8.5741 -1.0458 -2.8463 -7.1957 -0 0 -0 6.431 4.5468 16.092 2.0028 -5.8845 -13.374 -3.9673 1.3708 9.1576 -0 0 -0 8.1646 -1.1393 8.5409 -11.797 5.0577 -18.386 16.258 -7.4272 -8.6877 7.4348 -3.3532 -5.5439 7.4348 -3.3532 -5.5439 -92.314 -47.126 -42.156 6.7087 -15.124 -18.037 -7.1111 -3.2471 -26.879 2.2415 1.5755 8.3221 0.64709 -0.37026 -0.9808 -0 0 -0 -92.314 -47.126 -42.156 -0.69812 -19.134 -44.661 -2.3621 9.0467 32.572 -7.6175 -5.9918 -14.932 0.5812 -0.54881 -1.0207 -0 0 -0 
112.21 16.597 -60.816 -0 0 -0 -99.698 -50.111 -56.983 -1.5227 -2.3014 -7.4287 -1.5228 -2.3014 -7.4288 -1.2591 -1.9467 -6.2355 -0 0 -0 8.1796 3.2817 13.824 1.8499 -4.7366 -13.07 -4.415 1.024 9.5387 -0 0 -0 9.5926 -1.5323 6.0246 -12.419 3.2956 -17.768 15.319 -4.2898 -7.7695 7.5192 -2.566 -5.8501 7.5192 -2.566 -5.8501 -99.698 -50.111 -56.983 7.8419 -12.137 -17.718 -8.8435 -1.4493 -22.131 3.8338 0.7726 6.1855 0.68864 -0.57311 -1.2334 -0 0 -0 -99.698 -50.111 -56.983 0.1304 -14.817 -42.115 -0.78895 7.7882 30.649 -7.9381 -5.2027 -11.964 0.51932 -0.6135 -1.2936 -0 0 -0 
